<?xml version="1.0" standalone="no"?><!DOCTYPE svg PUBLIC "-//W3C//DTD SVG 1.1//EN" "http://www.w3.org/Graphics/SVG/1.1/DTD/svg11.dtd"><svg t="1591690955330" class="icon" viewBox="0 0 1024 1024" version="1.1" xmlns="http://www.w3.org/2000/svg" p-id="7348" xmlns:xlink="http://www.w3.org/1999/xlink" width="200" height="200"><defs><style type="text/css"></style></defs><path d="M808 880c13.2544 0 24 10.7456 24 24 0 13.2544-10.7456 24-24 24H216c-13.2544 0-24-10.7456-24-24 0-13.2544 10.7456-24 24-24h592zM512 96c247.424 0 448 200.576 448 448 0 71.5488-16.8064 140.7408-48.5968 203.1312-6.0176 11.8112-20.4704 16.5056-32.28 10.488-11.8112-6.016-16.5056-20.4704-10.488-32.28 24.8048-48.68 39.384-101.984 42.656-157.3392H832c-13.2544 0-24-10.7456-24-24 0-13.2544 10.7456-24 24-24l79.2912-0.0032c-5.4912-92.7904-42.6144-177.072-100.7376-242.208l-54.2224 54.2208c-9.3728 9.3728-24.568 9.3728-33.9408 0-9.3728-9.3728-9.3728-24.568 0-33.9408l54.1264-54.128c-64.9024-57.2576-148.5264-93.7888-240.5136-99.232L536 224c0 13.2544-10.7456 24-24 24-13.2544 0-24-10.7456-24-24l-0.0016-79.2912c-92.3888 5.4672-176.3424 42.2928-241.3632 99.984L302.7408 300.8c9.3728 9.3728 9.3728 24.568 0 33.9408-9.3728 9.3728-24.568 9.3728-33.9408 0l-56.1072-56.1072c-57.6896 65.0224-94.5168 148.976-99.984 241.3632L192 520c13.2544 0 24 10.7456 24 24 0 13.2544-10.7456 24-24 24H112.7072c3.2512 54.9552 17.6432 107.888 42.1232 156.288 5.984 11.8272 1.2448 26.2656-10.5824 32.248-11.8288 5.984-26.2672 1.2448-32.2496-10.5824C80.592 683.864 64 615.0944 64 544 64 296.576 264.576 96 512 96z m152.3744 295.6256c9.3728 9.3728 9.3728 24.568 0 33.9408l-67.8816 67.8832a24.352 24.352 0 0 1-1.2256 1.1424C603.368 508.6688 608 524.9936 608 542.4c0 53.0192-42.9808 96-96 96s-96-42.9808-96-96 42.9808-96 96-96c18.2304 0 35.272 5.0816 49.7904 13.904 0.2448-0.2688 0.4992-0.5344 0.76-0.7968l67.8832-67.8816c9.3728-9.3728 24.568-9.3728 33.9408 0zM512 494.4c-26.5104 0-48 21.4896-48 48 0 26.5104 21.4896 48 48 48 26.5104 0 48-21.4896 48-48 0-26.5104-21.4896-48-48-48z" fill="#979797" p-id="7349"></path></svg>